<svg xmlns="http://www.w3.org/2000/svg" width="128" height="128" viewBox="0 0 128 128">
  <defs>
    <linearGradient id="bg" x1="12%" y1="8%" x2="88%" y2="92%">
      <stop offset="0%" stop-color="#051021" />
      <stop offset="55%" stop-color="#071931" />
      <stop offset="100%" stop-color="#04101F" />
    </linearGradient>
    <linearGradient id="accent" x1="0%" y1="0%" x2="100%" y2="100%">
      <stop offset="0%" stop-color="#4CC7FF" stop-opacity="0.85" />
      <stop offset="100%" stop-color="#1B8FD4" stop-opacity="0.95" />
    </linearGradient>
  </defs>
  <rect width="120" height="120" x="4" y="4" rx="26" fill="url(#bg)" />
  <path d="M32 36h12l10 28h-11l-3-9h-14l-3 9h-11l10-28zm3 17h8l-4-13h-0.2z" fill="#9DE8FF" />
  <path d="M60 50c0-9.9 7.6-18.1 18-18.1c10.8 0 18.8 7.9 18.8 18.1c0 10.3-7.9 18.1-18.8 18.1c-10.4 0-18-8.2-18-18.1zm26.5 0c0-5.2-3.6-9.5-8.5-9.5c-5.1 0-8.5 4.2-8.5 9.5c0 5.4 3.4 9.5 8.5 9.5c4.9 0 8.5-4.3 8.5-9.5z" fill="#51CFFF" />
  <path d="M56 88c0-9.6 7.4-16.5 17.9-16.5c7.4 0 12.1 2.6 15.6 6.6l-8.2 6.4c-1.9-2.2-4.4-3.5-7.4-3.5c-4.6 0-8 3.1-8 7.1c0 4.1 3.4 7.2 8 7.2c3 0 5.5-1.3 7.4-3.5l8.2 6.4c-3.5 4-8.2 6.6-15.6 6.6C63.4 104.6 56 97.5 56 88z" fill="url(#accent)" />
  <path d="M104 28h10v72h-10z" fill="#13263C" opacity="0.6" />
</svg>
